# xmcd
#
# Track frame offsets: 
#        150
#        9342
#        20539
#        33466
#        46782
#        57047
#        66827
#        79195
#        90864
#        106303
#        118927
#        129362
#        140600
#        153613
#        167038
#        180201
#        193694
#        206462
#        219197
#        232109
#        241931
#        253968
#        264060
#        278586
#        290403
#
# Disc length: 4054 seconds
#
# Revision: 0
# Processed by: cddbd v1.5.2PL0 Copyright (c) Steve Scherf et al.
# Submitted via: ExactAudioCopy v1.3
#
DISCID=500fd419
DTITLE=Howlin' Wolf - Howlin' Wolf Blues Master Works
DYEAR=2013
DGENRE=Blues
TTITLE0=Smokestack Lightning
TTITLE1=The Red Rooster
TTITLE2=Spoonful
TTITLE3=Evil (Is Going On)
TTITLE4=Do the Do
TTITLE5=Mama's Baby
TTITLE6=How Many More Years?
TTITLE7=Howlin' For My Baby
TTITLE8=Going Down Slow
TTITLE9=Little Baby
TTITLE10=Shake For Me
TTITLE11=You'll Be Mine
TTITLE12=I Ain't Superstitious
TTITLE13=Moanin' At Midnight
TTITLE14=No Place to Go
TTITLE15=I'm Leavin' You
TTITLE16=Moanin' For My Baby
TTITLE17=Fourty Four
TTITLE18=Back Door Man
TTITLE19=So Glad
TTITLE20=Don't Mess With My Baby
TTITLE21=All Night Boogie
TTITLE22=I'll Be Around
TTITLE23=I Have a Little Girl
TTITLE24=The Wolf is at Your Door
EXTD=
EXTT0=
EXTT1=
EXTT2=
EXTT3=
EXTT4=
EXTT5=
EXTT6=
EXTT7=
EXTT8=
EXTT9=
EXTT10=
EXTT11=
EXTT12=
EXTT13=
EXTT14=
EXTT15=
EXTT16=
EXTT17=
EXTT18=
EXTT19=
EXTT20=
EXTT21=
EXTT22=
EXTT23=
EXTT24=
PLAYORDER=
